<svg width="48" height="51" fill="none" xmlns="http://www.w3.org/2000/svg"><path d="M5.355.448H1.044v22.4h19.06v-4.224H5.353V.448zM44.55 19.936c2.219-2.272 3.312-5.024 3.312-8.288 0-3.264-1.093-6.016-3.311-8.256C42.333 1.12 39.647 0 36.49 0c-3.155 0-5.841 1.12-8.059 3.392-2.187 2.24-3.28 4.992-3.28 8.256 0 3.264 1.093 6.016 3.28 8.288 2.218 2.24 4.904 3.36 8.06 3.36 3.155 0 5.84-1.12 8.059-3.36zm-13.088-3.008c-1.343-1.376-2.03-3.136-2.03-5.28s.687-3.904 2.03-5.28c1.343-1.376 3.03-2.08 5.03-2.08 1.999 0 3.686.704 5.029 2.08 1.343 1.376 2.03 3.136 2.03 5.28s-.687 3.904-2.03 5.28c-1.343 1.376-3.03 2.048-5.03 2.048-1.999 0-3.686-.672-5.029-2.048zm-19.395 21.04v3.904h6.623c-.781 2.656-3.03 4.256-6.373 4.256-2.25 0-4.06-.672-5.435-2.048-1.344-1.376-2.03-3.136-2.03-5.248 0-2.144.655-3.904 1.998-5.28 1.344-1.408 3.062-2.112 5.155-2.112 2.592 0 4.842 1.28 5.872 3.104l3.687-2.176c-1.875-3.168-5.436-5.216-9.528-5.216-3.249 0-5.967 1.12-8.184 3.392-2.187 2.272-3.28 5.024-3.28 8.288 0 3.232 1.093 5.984 3.31 8.256 2.219 2.24 5.03 3.36 8.404 3.36 3.155 0 5.748-.992 7.747-2.976 2-1.984 2.999-4.576 2.999-7.776v-1.728H12.067zm32.43 9.12c2.218-2.272 3.311-5.024 3.311-8.288 0-3.264-1.093-6.016-3.31-8.256-2.219-2.272-4.905-3.392-8.06-3.392-3.155 0-5.842 1.12-8.06 3.392-2.186 2.24-3.28 4.992-3.28 8.256 0 3.264 1.094 6.016 3.28 8.288 2.218 2.24 4.905 3.36 8.06 3.36 3.155 0 5.841-1.12 8.06-3.36zM31.408 44.08c-1.343-1.376-2.03-3.136-2.03-5.28s.687-3.904 2.03-5.28c1.344-1.376 3.03-2.08 5.03-2.08 1.999 0 3.686.704 5.03 2.08 1.342 1.376 2.03 3.136 2.03 5.28s-.688 3.904-2.03 5.28c-1.344 1.376-3.031 2.048-5.03 2.048-2 0-3.686-.672-5.03-2.048z" fill="#000"/></svg>